<svg width="1837" height="8" viewBox="0 0 1837 8" fill="none" xmlns="http://www.w3.org/2000/svg">
<path d="M6.03782 0H53.0466L44.4211 6.90037H0L6.03782 0Z" fill="white" fill-opacity="0.24"/>
<path d="M69.4353 0H116.444L107.819 6.90037H63.3975L69.4353 0Z" fill="white" fill-opacity="0.24"/>
<path d="M140.163 0H187.172L178.546 6.90037H134.125L140.163 0Z" fill="white" fill-opacity="0.24"/>
<path d="M210.892 0H257.901L249.276 6.90037H204.854L210.892 0Z" fill="white" fill-opacity="0.24"/>
<path d="M281.621 0H328.63L320.004 6.90037H275.583L281.621 0Z" fill="white" fill-opacity="0.24"/>
<path d="M352.35 0H399.359L390.733 6.90037H346.312L352.35 0Z" fill="white" fill-opacity="0.24"/>
<path d="M423.227 0.163086H470.236L461.61 7.06345H417.189L423.227 0.163086Z" fill="white" fill-opacity="0.24"/>
<path d="M493.807 0H540.816L532.191 6.90037H487.77L493.807 0Z" fill="white" fill-opacity="0.24"/>
<path d="M564.536 0H611.545L602.92 6.90037H558.499L564.536 0Z" fill="white" fill-opacity="0.24"/>
<path d="M635.265 0H682.274L673.648 6.90037H629.227L635.265 0Z" fill="white" fill-opacity="0.24"/>
<path d="M705.994 0H753.003L744.377 6.90037H699.956L705.994 0Z" fill="white" fill-opacity="0.24"/>
<path d="M776.722 0H823.731L815.106 6.90037H770.685L776.722 0Z" fill="white" fill-opacity="0.24"/>
<path d="M847.451 0H894.46L885.835 6.90037H841.414L847.451 0Z" fill="white" fill-opacity="0.24"/>
<path d="M918.18 0H965.189L956.564 6.90037H912.143L918.18 0Z" fill="white" fill-opacity="0.24"/>
<path d="M989.227 0H1036.24L1027.61 6.90037H983.189L989.227 0Z" fill="white" fill-opacity="0.24"/>
<path d="M1060.27 0H1107.28L1098.66 6.90037H1054.24L1060.27 0Z" fill="white" fill-opacity="0.24"/>
<path d="M1131.32 0H1178.33L1169.7 6.90037H1125.28L1131.32 0Z" fill="white" fill-opacity="0.24"/>
<path d="M1202.37 0H1249.37L1240.75 6.90037H1196.33L1202.37 0Z" fill="white" fill-opacity="0.24"/>
<path d="M1273.41 0H1320.42L1311.8 6.90037H1267.37L1273.41 0Z" fill="white" fill-opacity="0.24"/>
<path d="M1344.46 0H1391.47L1382.84 6.90037H1338.42L1344.46 0Z" fill="white" fill-opacity="0.24"/>
<path d="M1415.51 0H1462.51L1453.89 6.90037H1409.47L1415.51 0Z" fill="white" fill-opacity="0.24"/>
<path d="M1486.55 0H1533.56L1524.93 6.90037H1480.51L1486.55 0Z" fill="white" fill-opacity="0.24"/>
<path d="M1557.6 0H1604.61L1595.98 6.90037H1551.56L1557.6 0Z" fill="white" fill-opacity="0.24"/>
<path d="M1628.64 0H1675.65L1667.03 6.90037H1622.61L1628.64 0Z" fill="white" fill-opacity="0.24"/>
<path d="M1699.69 0H1746.7L1738.07 6.90037H1693.65L1699.69 0Z" fill="white" fill-opacity="0.24"/>
<path d="M1770.74 0H1817.75L1809.12 6.90037H1764.7L1770.74 0Z" fill="white" fill-opacity="0.24"/>
<path d="M1841.78 0H1888.79L1880.17 6.90037H1835.75L1841.78 0Z" fill="white" fill-opacity="0.24"/>
</svg>
